<?xml version="1.0" encoding="utf-8"?>
<!-- Generator: Adobe Illustrator 18.0.0, SVG Export Plug-In . SVG Version: 6.00 Build 0)  -->
<!DOCTYPE svg PUBLIC "-//W3C//DTD SVG 1.1//EN" "http://www.w3.org/Graphics/SVG/1.1/DTD/svg11.dtd">
<svg version="1.1" id="Layer_1" xmlns="http://www.w3.org/2000/svg" xmlns:xlink="http://www.w3.org/1999/xlink" x="0px" y="0px"
	 viewBox="63 86.1 863.8 286.8" enable-background="new 63 86.1 863.8 286.8" xml:space="preserve">
<g>
	<rect x="629" y="86.1" fill="#399AD5" width="297.8" height="286.8"/>
	<g>
		<path fill="#FFFFFF" d="M668.3,186.7c0,4.6-2.3,6.9-6.9,6.9c-4.6,0-6.9-2.3-6.9-6.9c0-4.6,2.3-6.9,6.9-6.9
			C666,179.7,668.3,182,668.3,186.7z M668.3,201.8c0,4.6-2.3,6.9-6.9,6.9c-4.6,0-6.9-2.3-6.9-6.9c0-4.6,2.3-6.9,6.9-6.9
			C666,194.8,668.3,197.1,668.3,201.8z M683.4,186.7c0,4.6-2.3,6.9-6.9,6.9c-4.6,0-6.9-2.3-6.9-6.9c0-4.6,2.3-6.9,6.9-6.9
			C681.1,179.7,683.4,182,683.4,186.7z M683.4,201.8c0,4.6-2.3,6.9-6.9,6.9c-4.6,0-6.9-2.3-6.9-6.9c0-4.6,2.3-6.9,6.9-6.9
			C681.1,194.8,683.4,197.1,683.4,201.8z M683.4,216.9c0,4.6-2.3,6.9-6.9,6.9c-4.6,0-6.9-2.3-6.9-6.9c0-4.6,2.3-6.9,6.9-6.9
			C681.1,209.9,683.4,212.3,683.4,216.9z M683.4,232c0,4.6-2.3,6.9-6.9,6.9c-4.6,0-6.9-2.3-6.9-6.9c0-4.6,2.3-6.9,6.9-6.9
			C681.1,225.1,683.4,227.4,683.4,232z M683.4,247.1c0,4.6-2.3,6.9-6.9,6.9c-4.6,0-6.9-2.3-6.9-6.9c0-4.6,2.3-6.9,6.9-6.9
			C681.1,240.2,683.4,242.5,683.4,247.1z M683.4,262.2c0,4.6-2.3,6.9-6.9,6.9c-4.6,0-6.9-2.3-6.9-6.9c0-4.6,2.3-6.9,6.9-6.9
			C681.1,255.3,683.4,257.6,683.4,262.2z M683.4,277.3c0,4.6-2.3,6.9-6.9,6.9c-4.6,0-6.9-2.3-6.9-6.9c0-4.6,2.3-6.9,6.9-6.9
			C681.1,270.4,683.4,272.7,683.4,277.3z M683.4,292.4c0,4.6-2.3,6.9-6.9,6.9c-4.6,0-6.9-2.3-6.9-6.9c0-4.6,2.3-6.9,6.9-6.9
			C681.1,285.5,683.4,287.8,683.4,292.4z M683.4,307.5c0,4.6-2.3,6.9-6.9,6.9c-4.6,0-6.9-2.3-6.9-6.9c0-4.6,2.3-6.9,6.9-6.9
			C681.1,300.6,683.4,302.9,683.4,307.5z M683.4,322.6c0,4.6-2.3,6.9-6.9,6.9c-4.6,0-6.9-2.3-6.9-6.9s2.3-6.9,6.9-6.9
			C681.1,315.7,683.4,318,683.4,322.6z M683.4,337.7c0,4.6-2.3,6.9-6.9,6.9c-4.6,0-6.9-2.3-6.9-6.9c0-4.6,2.3-6.9,6.9-6.9
			C681.1,330.8,683.4,333.1,683.4,337.7z M698.5,186.7c0,4.6-2.3,6.9-6.9,6.9c-4.6,0-6.9-2.3-6.9-6.9c0-4.6,2.3-6.9,6.9-6.9
			C696.2,179.7,698.5,182,698.5,186.7z M698.5,201.8c0,4.6-2.3,6.9-6.9,6.9c-4.6,0-6.9-2.3-6.9-6.9c0-4.6,2.3-6.9,6.9-6.9
			C696.2,194.8,698.5,197.1,698.5,201.8z M698.5,216.9c0,4.6-2.3,6.9-6.9,6.9c-4.6,0-6.9-2.3-6.9-6.9c0-4.6,2.3-6.9,6.9-6.9
			C696.2,209.9,698.5,212.3,698.5,216.9z M698.5,232c0,4.6-2.3,6.9-6.9,6.9c-4.6,0-6.9-2.3-6.9-6.9c0-4.6,2.3-6.9,6.9-6.9
			C696.2,225.1,698.5,227.4,698.5,232z M698.5,247.1c0,4.6-2.3,6.9-6.9,6.9c-4.6,0-6.9-2.3-6.9-6.9c0-4.6,2.3-6.9,6.9-6.9
			C696.2,240.2,698.5,242.5,698.5,247.1z M698.5,262.2c0,4.6-2.3,6.9-6.9,6.9c-4.6,0-6.9-2.3-6.9-6.9c0-4.6,2.3-6.9,6.9-6.9
			C696.2,255.3,698.5,257.6,698.5,262.2z M698.5,277.3c0,4.6-2.3,6.9-6.9,6.9c-4.6,0-6.9-2.3-6.9-6.9c0-4.6,2.3-6.9,6.9-6.9
			C696.2,270.4,698.5,272.7,698.5,277.3z M698.5,292.4c0,4.6-2.3,6.9-6.9,6.9c-4.6,0-6.9-2.3-6.9-6.9c0-4.6,2.3-6.9,6.9-6.9
			C696.2,285.5,698.5,287.8,698.5,292.4z M698.5,307.5c0,4.6-2.3,6.9-6.9,6.9c-4.6,0-6.9-2.3-6.9-6.9c0-4.6,2.3-6.9,6.9-6.9
			C696.2,300.6,698.5,302.9,698.5,307.5z M698.5,322.6c0,4.6-2.3,6.9-6.9,6.9c-4.6,0-6.9-2.3-6.9-6.9s2.3-6.9,6.9-6.9
			C696.2,315.7,698.5,318,698.5,322.6z M698.5,337.7c0,4.6-2.3,6.9-6.9,6.9c-4.6,0-6.9-2.3-6.9-6.9c0-4.6,2.3-6.9,6.9-6.9
			C696.2,330.8,698.5,333.1,698.5,337.7z"/>
		<path fill="#FFFFFF" d="M718.2,201.8c0-4.6,2.3-6.9,6.9-6.9c4.6,0,6.9,2.3,6.9,6.9c0,4.6-2.3,6.9-6.9,6.9
			C720.6,208.7,718.2,206.4,718.2,201.8z M718.2,216.9c0-4.6,2.3-6.9,6.9-6.9c4.6,0,6.9,2.3,6.9,6.9c0,4.6-2.3,6.9-6.9,6.9
			C720.6,223.8,718.2,221.5,718.2,216.9z M718.2,232c0-4.6,2.3-6.9,6.9-6.9c4.6,0,6.9,2.3,6.9,6.9c0,4.6-2.3,6.9-6.9,6.9
			C720.6,238.9,718.2,236.6,718.2,232z M718.2,247.1c0-4.6,2.3-6.9,6.9-6.9c4.6,0,6.9,2.3,6.9,6.9c0,4.6-2.3,6.9-6.9,6.9
			C720.6,254,718.2,251.7,718.2,247.1z M718.2,262.2c0-4.6,2.3-6.9,6.9-6.9c4.6,0,6.9,2.3,6.9,6.9c0,4.6-2.3,6.9-6.9,6.9
			C720.6,269.1,718.2,266.8,718.2,262.2z M718.2,277.3c0-4.6,2.3-6.9,6.9-6.9c4.6,0,6.9,2.3,6.9,6.9c0,4.6-2.3,6.9-6.9,6.9
			C720.6,284.2,718.2,281.9,718.2,277.3z M718.2,292.4c0-4.6,2.3-6.9,6.9-6.9c4.6,0,6.9,2.3,6.9,6.9c0,4.6-2.3,6.9-6.9,6.9
			C720.6,299.3,718.2,297,718.2,292.4z M718.2,307.5c0-4.6,2.3-6.9,6.9-6.9c4.6,0,6.9,2.3,6.9,6.9c0,4.6-2.3,6.9-6.9,6.9
			C720.6,314.4,718.2,312.1,718.2,307.5z M718.2,322.6c0-4.6,2.3-6.9,6.9-6.9c4.6,0,6.9,2.3,6.9,6.9s-2.3,6.9-6.9,6.9
			C720.6,329.6,718.2,327.3,718.2,322.6z M733.4,186.7c0-4.6,2.3-6.9,6.9-6.9c4.6,0,6.9,2.3,6.9,6.9c0,4.6-2.3,6.9-6.9,6.9
			C735.7,193.6,733.4,191.3,733.4,186.7z M733.4,201.8c0-4.6,2.3-6.9,6.9-6.9c4.6,0,6.9,2.3,6.9,6.9c0,4.6-2.3,6.9-6.9,6.9
			C735.7,208.7,733.4,206.4,733.4,201.8z M733.4,216.9c0-4.6,2.3-6.9,6.9-6.9c4.6,0,6.9,2.3,6.9,6.9c0,4.6-2.3,6.9-6.9,6.9
			C735.7,223.8,733.4,221.5,733.4,216.9z M733.4,232c0-4.6,2.3-6.9,6.9-6.9c4.6,0,6.9,2.3,6.9,6.9c0,4.6-2.3,6.9-6.9,6.9
			C735.7,238.9,733.4,236.6,733.4,232z M733.4,247.1c0-4.6,2.3-6.9,6.9-6.9c4.6,0,6.9,2.3,6.9,6.9c0,4.6-2.3,6.9-6.9,6.9
			C735.7,254,733.4,251.7,733.4,247.1z M733.4,262.2c0-4.6,2.3-6.9,6.9-6.9c4.6,0,6.9,2.3,6.9,6.9c0,4.6-2.3,6.9-6.9,6.9
			C735.7,269.1,733.4,266.8,733.4,262.2z M733.4,277.3c0-4.6,2.3-6.9,6.9-6.9c4.6,0,6.9,2.3,6.9,6.9c0,4.6-2.3,6.9-6.9,6.9
			C735.7,284.2,733.4,281.9,733.4,277.3z M733.4,292.4c0-4.6,2.3-6.9,6.9-6.9c4.6,0,6.9,2.3,6.9,6.9c0,4.6-2.3,6.9-6.9,6.9
			C735.7,299.3,733.4,297,733.4,292.4z M733.4,307.5c0-4.6,2.3-6.9,6.9-6.9c4.6,0,6.9,2.3,6.9,6.9c0,4.6-2.3,6.9-6.9,6.9
			C735.7,314.4,733.4,312.1,733.4,307.5z M733.4,322.6c0-4.6,2.3-6.9,6.9-6.9c4.6,0,6.9,2.3,6.9,6.9s-2.3,6.9-6.9,6.9
			C735.7,329.6,733.4,327.3,733.4,322.6z M733.4,337.7c0-4.6,2.3-6.9,6.9-6.9c4.6,0,6.9,2.3,6.9,6.9c0,4.6-2.3,6.9-6.9,6.9
			C735.7,344.7,733.4,342.4,733.4,337.7z M748.5,186.7c0-4.6,2.3-6.9,6.9-6.9c4.6,0,6.9,2.3,6.9,6.9c0,4.6-2.3,6.9-6.9,6.9
			C750.8,193.6,748.5,191.3,748.5,186.7z M748.5,201.8c0-4.6,2.3-6.9,6.9-6.9c4.6,0,6.9,2.3,6.9,6.9c0,4.6-2.3,6.9-6.9,6.9
			C750.8,208.7,748.5,206.4,748.5,201.8z M748.5,322.6c0-4.6,2.3-6.9,6.9-6.9c4.6,0,6.9,2.3,6.9,6.9s-2.3,6.9-6.9,6.9
			C750.8,329.6,748.5,327.3,748.5,322.6z M748.5,337.7c0-4.6,2.3-6.9,6.9-6.9c4.6,0,6.9,2.3,6.9,6.9c0,4.6-2.3,6.9-6.9,6.9
			C750.8,344.7,748.5,342.4,748.5,337.7z M763.6,186.7c0-4.6,2.3-6.9,6.9-6.9s6.9,2.3,6.9,6.9c0,4.6-2.3,6.9-6.9,6.9
			S763.6,191.3,763.6,186.7z M763.6,201.8c0-4.6,2.3-6.9,6.9-6.9s6.9,2.3,6.9,6.9c0,4.6-2.3,6.9-6.9,6.9S763.6,206.4,763.6,201.8z
			 M763.6,322.6c0-4.6,2.3-6.9,6.9-6.9s6.9,2.3,6.9,6.9s-2.3,6.9-6.9,6.9S763.6,327.3,763.6,322.6z M763.6,337.7
			c0-4.6,2.3-6.9,6.9-6.9s6.9,2.3,6.9,6.9c0,4.6-2.3,6.9-6.9,6.9S763.6,342.4,763.6,337.7z M778.7,201.8c0-4.6,2.3-6.9,6.9-6.9
			c4.6,0,6.9,2.3,6.9,6.9c0,4.6-2.3,6.9-6.9,6.9C781,208.7,778.7,206.4,778.7,201.8z M778.7,216.9c0-4.6,2.3-6.9,6.9-6.9
			c4.6,0,6.9,2.3,6.9,6.9c0,4.6-2.3,6.9-6.9,6.9C781,223.8,778.7,221.5,778.7,216.9z M778.7,232c0-4.6,2.3-6.9,6.9-6.9
			c4.6,0,6.9,2.3,6.9,6.9c0,4.6-2.3,6.9-6.9,6.9C781,238.9,778.7,236.6,778.7,232z M778.7,247.1c0-4.6,2.3-6.9,6.9-6.9
			c4.6,0,6.9,2.3,6.9,6.9c0,4.6-2.3,6.9-6.9,6.9C781,254,778.7,251.7,778.7,247.1z M778.7,262.2c0-4.6,2.3-6.9,6.9-6.9
			c4.6,0,6.9,2.3,6.9,6.9c0,4.6-2.3,6.9-6.9,6.9C781,269.1,778.7,266.8,778.7,262.2z M778.7,277.3c0-4.6,2.3-6.9,6.9-6.9
			c4.6,0,6.9,2.3,6.9,6.9c0,4.6-2.3,6.9-6.9,6.9C781,284.2,778.7,281.9,778.7,277.3z M778.7,292.4c0-4.6,2.3-6.9,6.9-6.9
			c4.6,0,6.9,2.3,6.9,6.9c0,4.6-2.3,6.9-6.9,6.9C781,299.3,778.7,297,778.7,292.4z M778.7,307.5c0-4.6,2.3-6.9,6.9-6.9
			c4.6,0,6.9,2.3,6.9,6.9c0,4.6-2.3,6.9-6.9,6.9C781,314.4,778.7,312.1,778.7,307.5z M778.7,322.6c0-4.6,2.3-6.9,6.9-6.9
			c4.6,0,6.9,2.3,6.9,6.9s-2.3,6.9-6.9,6.9C781,329.6,778.7,327.3,778.7,322.6z M778.7,337.7c0-4.6,2.3-6.9,6.9-6.9
			c4.6,0,6.9,2.3,6.9,6.9c0,4.6-2.3,6.9-6.9,6.9C781,344.7,778.7,342.4,778.7,337.7z M793.8,216.9c0-4.6,2.3-6.9,6.9-6.9
			c4.6,0,6.9,2.3,6.9,6.9c0,4.6-2.3,6.9-6.9,6.9S793.8,221.5,793.8,216.9z M793.8,232c0-4.6,2.3-6.9,6.9-6.9c4.6,0,6.9,2.3,6.9,6.9
			c0,4.6-2.3,6.9-6.9,6.9S793.8,236.6,793.8,232z M793.8,247.1c0-4.6,2.3-6.9,6.9-6.9c4.6,0,6.9,2.3,6.9,6.9c0,4.6-2.3,6.9-6.9,6.9
			S793.8,251.7,793.8,247.1z M793.8,262.2c0-4.6,2.3-6.9,6.9-6.9c4.6,0,6.9,2.3,6.9,6.9c0,4.6-2.3,6.9-6.9,6.9
			C796.1,269.1,793.8,266.8,793.8,262.2z M793.8,277.3c0-4.6,2.3-6.9,6.9-6.9c4.6,0,6.9,2.3,6.9,6.9c0,4.6-2.3,6.9-6.9,6.9
			S793.8,281.9,793.8,277.3z M793.8,292.4c0-4.6,2.3-6.9,6.9-6.9c4.6,0,6.9,2.3,6.9,6.9c0,4.6-2.3,6.9-6.9,6.9
			C796.1,299.3,793.8,297,793.8,292.4z M793.8,307.5c0-4.6,2.3-6.9,6.9-6.9c4.6,0,6.9,2.3,6.9,6.9c0,4.6-2.3,6.9-6.9,6.9
			S793.8,312.1,793.8,307.5z M793.8,322.6c0-4.6,2.3-6.9,6.9-6.9c4.6,0,6.9,2.3,6.9,6.9s-2.3,6.9-6.9,6.9S793.8,327.3,793.8,322.6z"
			/>
		<g>
			<path fill="#FFFFFF" d="M815.2,226.7c0-2.3,1.2-3.5,3.5-3.5c2.3,0,3.4,1.2,3.4,3.5c0,2.3-1.1,3.4-3.4,3.4
				C816.4,230.2,815.2,229,815.2,226.7z M815.2,234.2c0-2.3,1.2-3.4,3.5-3.4c2.3,0,3.4,1.1,3.4,3.4c0,2.3-1.1,3.4-3.4,3.4
				C816.4,237.6,815.2,236.5,815.2,234.2z M822.7,226.7c0-2.3,1.2-3.5,3.5-3.5c2.3,0,3.4,1.2,3.4,3.5c0,2.3-1.2,3.4-3.4,3.4
				C823.8,230.2,822.7,229,822.7,226.7z M822.7,234.2c0-2.3,1.2-3.4,3.5-3.4c2.3,0,3.4,1.1,3.4,3.4c0,2.3-1.2,3.4-3.4,3.4
				C823.8,237.6,822.7,236.5,822.7,234.2z M830.1,226.7c0-2.3,1.2-3.5,3.5-3.5c2.3,0,3.5,1.2,3.5,3.5c0,2.3-1.2,3.4-3.5,3.4
				C831.3,230.2,830.1,229,830.1,226.7z M830.1,234.2c0-2.3,1.2-3.4,3.5-3.4c2.3,0,3.5,1.1,3.5,3.4c0,2.3-1.2,3.4-3.5,3.4
				C831.3,237.6,830.1,236.5,830.1,234.2z M837.5,226.7c0-2.3,1.2-3.5,3.5-3.5s3.5,1.2,3.5,3.5c0,2.3-1.2,3.4-3.5,3.4
				S837.5,229,837.5,226.7z M837.5,234.2c0-2.3,1.2-3.4,3.5-3.4s3.5,1.1,3.5,3.4c0,2.3-1.2,3.4-3.5,3.4S837.5,236.5,837.5,234.2z"/>
			<path fill="#FFFFFF" d="M860.9,189.5c0,2.3-1.1,3.4-3.4,3.4c-2.3,0-3.4-1.1-3.4-3.4s1.1-3.4,3.4-3.4
				C859.8,186.1,860.9,187.3,860.9,189.5z M860.9,197c0,2.3-1.1,3.4-3.4,3.4c-2.3,0-3.4-1.1-3.4-3.4s1.1-3.4,3.4-3.4
				C859.8,193.6,860.9,194.7,860.9,197z M860.9,204.3c0,2.3-1.1,3.4-3.4,3.4c-2.3,0-3.4-1.1-3.4-3.4c0-2.2,1.1-3.3,3.4-3.3
				C859.8,201,860.9,202.1,860.9,204.3z M860.9,211.8c0,2.3-1.1,3.4-3.4,3.4c-2.3,0-3.4-1.1-3.4-3.4c0-2.2,1.1-3.3,3.4-3.3
				C859.8,208.4,860.9,209.5,860.9,211.8z M860.9,234.2c0,2.3-1.1,3.4-3.4,3.4c-2.3,0-3.4-1.1-3.4-3.4c0-2.3,1.1-3.4,3.4-3.4
				C859.8,230.8,860.9,231.9,860.9,234.2z M860.9,241.6c0,2.3-1.1,3.4-3.4,3.4c-2.3,0-3.4-1.1-3.4-3.4c0-2.3,1.1-3.4,3.4-3.4
				C859.8,238.2,860.9,239.3,860.9,241.6z M860.9,249.1c0,2.3-1.1,3.4-3.4,3.4c-2.3,0-3.4-1.1-3.4-3.4c0-2.3,1.1-3.4,3.4-3.4
				C859.8,245.6,860.9,246.8,860.9,249.1z M868.4,182.1c0,2.3-1.1,3.4-3.4,3.4c-2.3,0-3.4-1.1-3.4-3.4c0-2.3,1.1-3.4,3.4-3.4
				C867.2,178.7,868.4,179.8,868.4,182.1z M868.4,189.5c0,2.3-1.1,3.4-3.4,3.4c-2.3,0-3.4-1.1-3.4-3.4s1.1-3.4,3.4-3.4
				C867.2,186.1,868.4,187.3,868.4,189.5z M868.4,197c0,2.3-1.1,3.4-3.4,3.4c-2.3,0-3.4-1.1-3.4-3.4s1.1-3.4,3.4-3.4
				C867.2,193.6,868.4,194.7,868.4,197z M868.4,204.3c0,2.3-1.1,3.4-3.4,3.4c-2.3,0-3.4-1.1-3.4-3.4c0-2.2,1.1-3.3,3.4-3.3
				C867.2,201,868.4,202.1,868.4,204.3z M868.4,211.8c0,2.3-1.1,3.4-3.4,3.4c-2.3,0-3.4-1.1-3.4-3.4c0-2.2,1.1-3.3,3.4-3.3
				C867.2,208.4,868.4,209.5,868.4,211.8z M868.4,219.2c0,2.3-1.1,3.4-3.4,3.4c-2.3,0-3.4-1.1-3.4-3.4c0-2.2,1.1-3.3,3.4-3.3
				C867.2,215.9,868.4,217,868.4,219.2z M868.4,234.2c0,2.3-1.1,3.4-3.4,3.4c-2.3,0-3.4-1.1-3.4-3.4c0-2.3,1.1-3.4,3.4-3.4
				C867.2,230.8,868.4,231.9,868.4,234.2z M868.4,241.6c0,2.3-1.1,3.4-3.4,3.4c-2.3,0-3.4-1.1-3.4-3.4c0-2.3,1.1-3.4,3.4-3.4
				C867.2,238.2,868.4,239.3,868.4,241.6z M868.4,249.1c0,2.3-1.1,3.4-3.4,3.4c-2.3,0-3.4-1.1-3.4-3.4c0-2.3,1.1-3.4,3.4-3.4
				C867.2,245.6,868.4,246.8,868.4,249.1z M868.4,256.5c0,2.3-1.1,3.4-3.4,3.4c-2.3,0-3.4-1.1-3.4-3.4c0-2.3,1.1-3.4,3.4-3.4
				C867.2,253.1,868.4,254.2,868.4,256.5z M875.8,182.1c0,2.3-1.1,3.4-3.4,3.4c-2.3,0-3.4-1.1-3.4-3.4c0-2.3,1.1-3.4,3.4-3.4
				C874.7,178.7,875.8,179.8,875.8,182.1z M875.8,189.5c0,2.3-1.1,3.4-3.4,3.4c-2.3,0-3.4-1.1-3.4-3.4s1.1-3.4,3.4-3.4
				C874.7,186.1,875.8,187.3,875.8,189.5z M875.8,211.8c0,2.3-1.1,3.4-3.4,3.4c-2.3,0-3.4-1.1-3.4-3.4c0-2.2,1.1-3.3,3.4-3.3
				C874.7,208.4,875.8,209.5,875.8,211.8z M875.8,219.2c0,2.3-1.1,3.4-3.4,3.4c-2.3,0-3.4-1.1-3.4-3.4c0-2.2,1.1-3.3,3.4-3.3
				C874.7,215.9,875.8,217,875.8,219.2z M875.8,249.1c0,2.3-1.1,3.4-3.4,3.4c-2.3,0-3.4-1.1-3.4-3.4c0-2.3,1.1-3.4,3.4-3.4
				C874.7,245.6,875.8,246.8,875.8,249.1z M875.8,256.5c0,2.3-1.1,3.4-3.4,3.4c-2.3,0-3.4-1.1-3.4-3.4c0-2.3,1.1-3.4,3.4-3.4
				C874.7,253.1,875.8,254.2,875.8,256.5z M883.2,211.8c0,2.3-1.1,3.4-3.4,3.4c-2.3,0-3.4-1.1-3.4-3.4c0-2.2,1.1-3.3,3.4-3.3
				C882,208.4,883.2,209.5,883.2,211.8z M883.2,219.2c0,2.3-1.1,3.4-3.4,3.4c-2.3,0-3.4-1.1-3.4-3.4c0-2.2,1.1-3.3,3.4-3.3
				C882,215.9,883.2,217,883.2,219.2z M883.3,182.1c0,2.3-1.1,3.4-3.4,3.4c-2.3,0-3.4-1.1-3.4-3.4c0-2.3,1.1-3.4,3.4-3.4
				C882.1,178.7,883.3,179.8,883.3,182.1z M883.3,189.5c0,2.3-1.1,3.4-3.4,3.4c-2.3,0-3.4-1.1-3.4-3.4s1.1-3.4,3.4-3.4
				C882.1,186.1,883.3,187.3,883.3,189.5z M883.3,249.1c0,2.3-1.1,3.4-3.4,3.4c-2.3,0-3.4-1.1-3.4-3.4c0-2.3,1.1-3.4,3.4-3.4
				C882.1,245.6,883.3,246.8,883.3,249.1z M883.3,256.5c0,2.3-1.1,3.4-3.4,3.4c-2.3,0-3.4-1.1-3.4-3.4c0-2.3,1.1-3.4,3.4-3.4
				C882.1,253.1,883.3,254.2,883.3,256.5z M890.7,182.1c0,2.3-1.1,3.4-3.4,3.4c-2.3,0-3.4-1.1-3.4-3.4c0-2.3,1.1-3.4,3.4-3.4
				C889.6,178.7,890.7,179.8,890.7,182.1z M890.7,189.5c0,2.3-1.1,3.4-3.4,3.4c-2.3,0-3.4-1.1-3.4-3.4s1.1-3.4,3.4-3.4
				C889.6,186.1,890.7,187.3,890.7,189.5z M890.7,197c0,2.3-1.1,3.4-3.4,3.4c-2.3,0-3.4-1.1-3.4-3.4s1.1-3.4,3.4-3.4
				C889.6,193.6,890.7,194.7,890.7,197z M890.7,204.4c0,2.3-1.1,3.4-3.4,3.4c-2.3,0-3.4-1.1-3.4-3.4c0-2.3,1.1-3.4,3.4-3.4
				C889.6,201,890.7,202.1,890.7,204.4z M890.7,211.9c0,2.3-1.1,3.4-3.4,3.4c-2.3,0-3.4-1.1-3.4-3.4c0-2.3,1.1-3.4,3.4-3.4
				C889.6,208.4,890.7,209.6,890.7,211.9z M890.7,219.3c0,2.3-1.1,3.4-3.4,3.4c-2.3,0-3.4-1.1-3.4-3.4c0-2.3,1.1-3.4,3.4-3.4
				C889.6,215.9,890.7,217,890.7,219.3z M890.7,226.7c0,2.3-1.1,3.4-3.4,3.4c-2.3,0-3.4-1.1-3.4-3.4c0-2.3,1.1-3.4,3.4-3.4
				C889.6,223.3,890.7,224.5,890.7,226.7z M890.7,234.2c0,2.3-1.1,3.4-3.4,3.4c-2.3,0-3.4-1.1-3.4-3.4c0-2.3,1.1-3.4,3.4-3.4
				C889.6,230.8,890.7,231.9,890.7,234.2z M890.7,241.6c0,2.3-1.1,3.4-3.4,3.4c-2.3,0-3.4-1.1-3.4-3.4c0-2.3,1.1-3.4,3.4-3.4
				C889.6,238.2,890.7,239.3,890.7,241.6z M890.7,249.1c0,2.3-1.1,3.4-3.4,3.4c-2.3,0-3.4-1.1-3.4-3.4c0-2.3,1.1-3.4,3.4-3.4
				C889.6,245.6,890.7,246.8,890.7,249.1z M890.7,256.5c0,2.3-1.1,3.4-3.4,3.4c-2.3,0-3.4-1.1-3.4-3.4c0-2.3,1.1-3.4,3.4-3.4
				C889.6,253.1,890.7,254.2,890.7,256.5z M898.2,189.5c0,2.3-1.1,3.4-3.4,3.4c-2.3,0-3.4-1.1-3.4-3.4s1.1-3.4,3.4-3.4
				C897,186.1,898.2,187.3,898.2,189.5z M898.2,197c0,2.3-1.1,3.4-3.4,3.4c-2.3,0-3.4-1.1-3.4-3.4s1.1-3.4,3.4-3.4
				C897,193.6,898.2,194.7,898.2,197z M898.2,204.4c0,2.3-1.1,3.4-3.4,3.4c-2.3,0-3.4-1.1-3.4-3.4c0-2.3,1.1-3.4,3.4-3.4
				C897,201,898.2,202.1,898.2,204.4z M898.2,211.9c0,2.3-1.1,3.4-3.4,3.4c-2.3,0-3.4-1.1-3.4-3.4c0-2.3,1.1-3.4,3.4-3.4
				C897,208.4,898.2,209.6,898.2,211.9z M898.2,219.3c0,2.3-1.1,3.4-3.4,3.4c-2.3,0-3.4-1.1-3.4-3.4c0-2.3,1.1-3.4,3.4-3.4
				C897,215.9,898.2,217,898.2,219.3z M898.2,226.7c0,2.3-1.1,3.4-3.4,3.4c-2.3,0-3.4-1.1-3.4-3.4c0-2.3,1.1-3.4,3.4-3.4
				C897,223.3,898.2,224.5,898.2,226.7z M898.2,234.2c0,2.3-1.1,3.4-3.4,3.4c-2.3,0-3.4-1.1-3.4-3.4c0-2.3,1.1-3.4,3.4-3.4
				C897,230.8,898.2,231.9,898.2,234.2z M898.2,241.6c0,2.3-1.1,3.4-3.4,3.4c-2.3,0-3.4-1.1-3.4-3.4c0-2.3,1.1-3.4,3.4-3.4
				C897,238.2,898.2,239.3,898.2,241.6z M898.2,249.1c0,2.3-1.1,3.4-3.4,3.4c-2.3,0-3.4-1.1-3.4-3.4c0-2.3,1.1-3.4,3.4-3.4
				C897,245.6,898.2,246.8,898.2,249.1z"/>
		</g>
		<path fill="#FFFFFF" d="M782.3,172.5"/>
		<path fill="#FFFFFF" d="M800.8,219.5l-16.6-16.6l24.4-35.7l73.3-32.2l1.5,2.2L800.8,219.5z M787.8,202.6l13,13l75.5-75.1
			l-65.8,28.9L787.8,202.6z"/>
		<path fill="#FFFFFF" d="M901.4,135c0,14-11.4,25.4-25.4,25.4S850.6,149,850.6,135s11.4-25.4,25.4-25.4S901.4,120.9,901.4,135z"/>
		<path fill="#FFFFFF" d="M826.2,168.3c0,9.2-7.5,16.7-16.7,16.7s-16.6-7.5-16.6-16.7c0-9.2,7.4-16.7,16.6-16.7
			S826.2,159.1,826.2,168.3z"/>
	</g>
</g>
<path fill="#399AD5" d="M104.9,164.3l-41.1,1.4c-0.6-2.2-0.8-4.5-0.8-6.9c0-2,0.5-3.6,1.4-4.8c0.9-1.2,2.6-1.8,5-1.8h90.4
	c0.4,0.9,0.6,2,0.8,3.3c0.2,1.3,0.3,2.5,0.3,3.6c0,4.8-2.1,7-6.3,6.6l-35.6-1.4V341c0,2-0.7,3.4-2.1,4c-1.4,0.6-3,1-4.8,1
	c-1.3,0-2.6-0.1-3.9-0.3c-1.3-0.2-2.4-0.4-3.3-0.6L104.9,164.3L104.9,164.3z"/>
<path fill="#399AD5" d="M199.5,340.8c0,2-0.7,3.4-2.1,4.3s-3.1,1.2-5.1,1.2c-0.9,0-2-0.1-3.3-0.3c-1.3-0.2-2.4-0.5-3.3-0.8V211.4
	c0-2.4,0.7-4,2.1-4.7c1.4-0.7,3.1-1.1,5.1-1.1c1.3,0,2.5,0.1,3.6,0.3c1.1,0.2,2.1,0.5,3,0.8V340.8z"/>
<path fill="#399AD5" d="M295.2,232.1c0-4-1.7-7.4-5-10.1c-3.3-2.7-8.6-4-15.7-4c-5.1,0-9.9,0.5-14.2,1.7c-4.3,1.1-8.2,2.4-11.7,3.9
	v117.2c0,2-0.5,3.3-1.4,3.9c-0.9,0.5-2.8,0.8-5.8,0.8c-0.7,0-1.8,0-3.2-0.1c-1.4-0.1-2.6-0.3-3.7-0.7v-131
	c5.9-2.6,12.5-4.7,19.9-6.5c7.3-1.7,14.5-2.6,21.5-2.6c13,0,22.5,4,28.4,11.9c4.8-3.1,10.3-5.9,16.7-8.3c6.3-2.4,13.2-3.6,20.5-3.6
	c9.6,0,16.7,2.5,21.4,7.4c4.7,5,7,13.6,7,25.9v102.9c0,2-0.5,3.3-1.7,3.9c-1.1,0.5-3,0.8-5.8,0.8c-0.9,0-1.9,0-3-0.1
	c-1.1-0.1-2.3-0.3-3.6-0.7V241c0-8.6-1.5-14.6-4.6-17.9c-3-3.3-8-5-14.8-5c-4.8,0-9.7,1.1-14.8,3.2c-5.1,2.1-9.2,4.4-12.5,6.8v112.8
	c0,2-0.5,3.3-1.4,3.9c-0.9,0.5-2.8,0.8-5.8,0.8c-0.9,0-2.1,0-3.4-0.1c-1.4-0.1-2.5-0.3-3.4-0.7L295.2,232.1L295.2,232.1z"/>
<path fill="#399AD5" d="M416.6,340.8c0,2-0.7,3.4-2.1,4.3s-3.1,1.2-5.1,1.2c-0.9,0-2-0.1-3.3-0.3c-1.3-0.2-2.4-0.5-3.3-0.8V211.4
	c0-2.4,0.7-4,2.1-4.7c1.4-0.7,3.1-1.1,5.1-1.1c1.3,0,2.5,0.1,3.6,0.3c1.1,0.2,2.1,0.5,3,0.8L416.6,340.8L416.6,340.8z"/>
<path fill="#399AD5" d="M451.6,213.6c5.3-2.2,12.2-4.3,20.5-6.2c8.4-1.9,16.6-2.9,24.7-2.9c7.4,0,13.5,0.7,18.3,2.1
	c4.9,1.4,8.8,3.7,11.7,6.9c2.9,3.2,5,7.3,6.1,12.3s1.7,11,1.7,18.2v96.8c0,2-0.5,3.4-1.5,4c-1,0.6-2.9,1-5.7,1c-0.9,0-2,0-3.2-0.1
	c-1.2-0.1-2.3-0.3-3.4-0.7V243.2c0-9.4-1.8-15.9-5.4-19.6c-3.6-3.7-10.2-5.5-19.7-5.5c-5.9,0-11.5,0.5-16.8,1.7
	c-5.3,1.1-9.7,2.4-13.2,3.9v117.2c0,2-0.5,3.4-1.4,4c-0.9,0.6-2.9,1-5.8,1c-0.7,0-1.8,0-3.2-0.1c-1.4-0.1-2.6-0.3-3.7-0.7
	L451.6,213.6L451.6,213.6z"/>
<path fill="#399AD5" d="M581.5,340.8c0,2-0.7,3.4-2.1,4.3s-3.1,1.2-5.1,1.2c-0.9,0-2-0.1-3.3-0.3c-1.3-0.2-2.4-0.5-3.3-0.8V211.4
	c0-2.4,0.7-4,2.1-4.7c1.4-0.7,3.1-1.1,5.1-1.1c1.3,0,2.5,0.1,3.6,0.3c1.1,0.2,2.1,0.5,3,0.8V340.8z"/>
<path fill="#399AD5" d="M585.9,164.6c0,7-3.5,10.5-10.5,10.5c-7,0-10.5-3.5-10.5-10.5s3.5-10.5,10.5-10.5
	C582.4,154.1,585.9,157.6,585.9,164.6z"/>
<path fill="#399AD5" d="M421,164.9c0,7-3.5,10.5-10.5,10.5c-7,0-10.5-3.5-10.5-10.5s3.5-10.5,10.5-10.5
	C417.5,154.4,421,157.9,421,164.9z"/>
<path fill="#399AD5" d="M203.9,164.9c0,7-3.5,10.5-10.5,10.5c-7,0-10.5-3.5-10.5-10.5s3.5-10.5,10.5-10.5
	C200.5,154.4,203.9,157.9,203.9,164.9z"/>
</svg>
